FFmpeg version SVN-r25716, Copyright (c) 2000-2010 the FFmpeg developers  built on Nov 10 2010 12:23:18 with gcc 4.1.2 20080704 (Red Hat 4.1.2-48)  configuration: --enable-libmp3lame --enable-shared --disable-mmx --arch=x86_64  libavutil     50.33. 0 / 50.33. 0  libavcore      0.12. 1 /  0.12. 1  libavcodec    52.94. 4 / 52.94. 4  libavformat   52.84. 0 / 52.84. 0  libavdevice   52. 2. 2 / 52. 2. 2  libavfilter    1.59. 0 /  1.59. 0  libswscale     0.12. 0 /  0.12. 0Seems stream 0 codec frame rate differs from container frame rate: 600.00 (600/1) -> 10.00 (10/1)Input #0, mov,mp4,m4a,3gp,3g2,mj2, from '/RAID10/data/converted_video_files/35412.mov':  Duration: 00:00:17.50, bitrate: 10533 kb/s    Stream #0.0(eng): Video: svq1, yuv410p, 620x376, 10533 kb/s, 10 fps, 10 tbr, 600 tbn, 600 tbc[buffer @ 0x179571b0] w:620 h:376 pixfmt:yuv410p[ffsink @ 0x17957420] auto-inserting filter 'auto-inserted scaler 0' between the filter 'src' and the filter 'out'[scale @ 0x17957740] w:620 h:376 fmt:yuv410p -> w:620 h:376 fmt:yuv420p flags:0x4Output #0, flv, to '/RAID10/data/converted_video_files/35412.flv':  Metadata:    encoder         : Lavf52.84.0    Stream #0.0(eng): Video: flv, yuv420p, 620x376, q=2-31, 600 kb/s, 1k tbn, 24 tbcStream mapping:  Stream #0.0 -> #0.0Press [q] to stop encodingframe=   36 fps=  0 q=24.8 size=    1185kB time=3.54 bitrate=2740.2kbits/s    frame=   73 fps= 69 q=31.0 size=    1495kB time=7.25 bitrate=1689.4kbits/s    frame=  106 fps= 67 q=24.8 size=    1803kB time=10.54 bitrate=1401.4kbits/s    frame=  144 fps= 69 q=31.0 size=    2218kB time=14.33 bitrate=1267.8kbits/s    frame=  175 fps= 68 q=31.0 Lsize=    2534kB time=17.46 bitrate=1189.0kbits/s    video:2531kB audio:0kB global headers:0kB muxing overhead 0.116133%